<?xml version="1.0" encoding="utf-8" standalone="no"?>
<!DOCTYPE svg PUBLIC "-//W3C//DTD SVG 1.1//EN"
  "http://www.w3.org/Graphics/SVG/1.1/DTD/svg11.dtd">
<svg xmlns:xlink="http://www.w3.org/1999/xlink" width="165.11125pt" height="189.558001pt" viewBox="0 0 165.11125 189.558001" xmlns="http://www.w3.org/2000/svg" version="1.1">
 <metadata>
  <rdf:RDF xmlns:dc="http://purl.org/dc/elements/1.1/" xmlns:cc="http://creativecommons.org/ns#" xmlns:rdf="http://www.w3.org/1999/02/22-rdf-syntax-ns#">
   <cc:Work>
    <dc:type rdf:resource="http://purl.org/dc/dcmitype/StillImage"/>
    <dc:date>2024-04-04T17:59:31.190489</dc:date>
    <dc:format>image/svg+xml</dc:format>
    <dc:creator>
     <cc:Agent>
      <dc:title>Matplotlib v3.8.2, https://matplotlib.org/</dc:title>
     </cc:Agent>
    </dc:creator>
   </cc:Work>
  </rdf:RDF>
 </metadata>
 <defs>
  <style type="text/css">*{stroke-linejoin: round; stroke-linecap: butt}</style>
 </defs>
 <g id="figure_1">
  <g id="patch_1">
   <path d="M 0 189.558001 
L 165.11125 189.558001 
L 165.11125 0 
L 0 0 
z
" style="fill: #ffffff"/>
  </g>
  <g id="axes_1">
   <g id="patch_2">
    <path d="M 46.31125 121.963126 
L 157.91125 121.963126 
L 157.91125 11.083126 
L 46.31125 11.083126 
z
" style="fill: #eaeaf2"/>
   </g>
   <g id="matplotlib.axis_1">
    <g id="xtick_1">
     <g id="text_1">
      <!-- Alacritty -->
      <g style="fill: #262626" transform="translate(79.069688 139.821408) scale(0.11 -0.11)">
       <defs>
        <path id="DejaVuSans-41" d="M 2188 4044 
L 1331 1722 
L 3047 1722 
L 2188 4044 
z
M 1831 4666 
L 2547 4666 
L 4325 0 
L 3669 0 
L 3244 1197 
L 1141 1197 
L 716 0 
L 50 0 
L 1831 4666 
z
" transform="scale(0.015625)"/>
        <path id="DejaVuSans-6c" d="M 603 4863 
L 1178 4863 
L 1178 0 
L 603 0 
L 603 4863 
z
" transform="scale(0.015625)"/>
        <path id="DejaVuSans-61" d="M 2194 1759 
Q 1497 1759 1228 1600 
Q 959 1441 959 1056 
Q 959 750 1161 570 
Q 1363 391 1709 391 
Q 2188 391 2477 730 
Q 2766 1069 2766 1631 
L 2766 1759 
L 2194 1759 
z
M 3341 1997 
L 3341 0 
L 2766 0 
L 2766 531 
Q 2569 213 2275 61 
Q 1981 -91 1556 -91 
Q 1019 -91 701 211 
Q 384 513 384 1019 
Q 384 1609 779 1909 
Q 1175 2209 1959 2209 
L 2766 2209 
L 2766 2266 
Q 2766 2663 2505 2880 
Q 2244 3097 1772 3097 
Q 1472 3097 1187 3025 
Q 903 2953 641 2809 
L 641 3341 
Q 956 3463 1253 3523 
Q 1550 3584 1831 3584 
Q 2591 3584 2966 3190 
Q 3341 2797 3341 1997 
z
" transform="scale(0.015625)"/>
        <path id="DejaVuSans-63" d="M 3122 3366 
L 3122 2828 
Q 2878 2963 2633 3030 
Q 2388 3097 2138 3097 
Q 1578 3097 1268 2742 
Q 959 2388 959 1747 
Q 959 1106 1268 751 
Q 1578 397 2138 397 
Q 2388 397 2633 464 
Q 2878 531 3122 666 
L 3122 134 
Q 2881 22 2623 -34 
Q 2366 -91 2075 -91 
Q 1284 -91 818 406 
Q 353 903 353 1747 
Q 353 2603 823 3093 
Q 1294 3584 2113 3584 
Q 2378 3584 2631 3529 
Q 2884 3475 3122 3366 
z
" transform="scale(0.015625)"/>
        <path id="DejaVuSans-72" d="M 2631 2963 
Q 2534 3019 2420 3045 
Q 2306 3072 2169 3072 
Q 1681 3072 1420 2755 
Q 1159 2438 1159 1844 
L 1159 0 
L 581 0 
L 581 3500 
L 1159 3500 
L 1159 2956 
Q 1341 3275 1631 3429 
Q 1922 3584 2338 3584 
Q 2397 3584 2469 3576 
Q 2541 3569 2628 3553 
L 2631 2963 
z
" transform="scale(0.015625)"/>
        <path id="DejaVuSans-69" d="M 603 3500 
L 1178 3500 
L 1178 0 
L 603 0 
L 603 3500 
z
M 603 4863 
L 1178 4863 
L 1178 4134 
L 603 4134 
L 603 4863 
z
" transform="scale(0.015625)"/>
        <path id="DejaVuSans-74" d="M 1172 4494 
L 1172 3500 
L 2356 3500 
L 2356 3053 
L 1172 3053 
L 1172 1153 
Q 1172 725 1289 603 
Q 1406 481 1766 481 
L 2356 481 
L 2356 0 
L 1766 0 
Q 1100 0 847 248 
Q 594 497 594 1153 
L 594 3053 
L 172 3053 
L 172 3500 
L 594 3500 
L 594 4494 
L 1172 4494 
z
" transform="scale(0.015625)"/>
        <path id="DejaVuSans-79" d="M 2059 -325 
Q 1816 -950 1584 -1140 
Q 1353 -1331 966 -1331 
L 506 -1331 
L 506 -850 
L 844 -850 
Q 1081 -850 1212 -737 
Q 1344 -625 1503 -206 
L 1606 56 
L 191 3500 
L 800 3500 
L 1894 763 
L 2988 3500 
L 3597 3500 
L 2059 -325 
z
" transform="scale(0.015625)"/>
       </defs>
       <use xlink:href="#DejaVuSans-41"/>
       <use xlink:href="#DejaVuSans-6c" x="68.408203"/>
       <use xlink:href="#DejaVuSans-61" x="96.191406"/>
       <use xlink:href="#DejaVuSans-63" x="157.470703"/>
       <use xlink:href="#DejaVuSans-72" x="212.451172"/>
       <use xlink:href="#DejaVuSans-69" x="253.564453"/>
       <use xlink:href="#DejaVuSans-74" x="281.347656"/>
       <use xlink:href="#DejaVuSans-74" x="320.556641"/>
       <use xlink:href="#DejaVuSans-79" x="359.765625"/>
      </g>
      <!-- F40 0.13.2 -->
      <g style="fill: #262626" transform="translate(72.707734 152.139001) scale(0.11 -0.11)">
       <defs>
        <path id="DejaVuSans-46" d="M 628 4666 
L 3309 4666 
L 3309 4134 
L 1259 4134 
L 1259 2759 
L 3109 2759 
L 3109 2228 
L 1259 2228 
L 1259 0 
L 628 0 
L 628 4666 
z
" transform="scale(0.015625)"/>
        <path id="DejaVuSans-34" d="M 2419 4116 
L 825 1625 
L 2419 1625 
L 2419 4116 
z
M 2253 4666 
L 3047 4666 
L 3047 1625 
L 3713 1625 
L 3713 1100 
L 3047 1100 
L 3047 0 
L 2419 0 
L 2419 1100 
L 313 1100 
L 313 1709 
L 2253 4666 
z
" transform="scale(0.015625)"/>
        <path id="DejaVuSans-30" d="M 2034 4250 
Q 1547 4250 1301 3770 
Q 1056 3291 1056 2328 
Q 1056 1369 1301 889 
Q 1547 409 2034 409 
Q 2525 409 2770 889 
Q 3016 1369 3016 2328 
Q 3016 3291 2770 3770 
Q 2525 4250 2034 4250 
z
M 2034 4750 
Q 2819 4750 3233 4129 
Q 3647 3509 3647 2328 
Q 3647 1150 3233 529 
Q 2819 -91 2034 -91 
Q 1250 -91 836 529 
Q 422 1150 422 2328 
Q 422 3509 836 4129 
Q 1250 4750 2034 4750 
z
" transform="scale(0.015625)"/>
        <path id="DejaVuSans-20" transform="scale(0.015625)"/>
        <path id="DejaVuSans-2e" d="M 684 794 
L 1344 794 
L 1344 0 
L 684 0 
L 684 794 
z
" transform="scale(0.015625)"/>
        <path id="DejaVuSans-31" d="M 794 531 
L 1825 531 
L 1825 4091 
L 703 3866 
L 703 4441 
L 1819 4666 
L 2450 4666 
L 2450 531 
L 3481 531 
L 3481 0 
L 794 0 
L 794 531 
z
" transform="scale(0.015625)"/>
        <path id="DejaVuSans-33" d="M 2597 2516 
Q 3050 2419 3304 2112 
Q 3559 1806 3559 1356 
Q 3559 666 3084 287 
Q 2609 -91 1734 -91 
Q 1441 -91 1130 -33 
Q 819 25 488 141 
L 488 750 
Q 750 597 1062 519 
Q 1375 441 1716 441 
Q 2309 441 2620 675 
Q 2931 909 2931 1356 
Q 2931 1769 2642 2001 
Q 2353 2234 1838 2234 
L 1294 2234 
L 1294 2753 
L 1863 2753 
Q 2328 2753 2575 2939 
Q 2822 3125 2822 3475 
Q 2822 3834 2567 4026 
Q 2313 4219 1838 4219 
Q 1578 4219 1281 4162 
Q 984 4106 628 3988 
L 628 4550 
Q 988 4650 1302 4700 
Q 1616 4750 1894 4750 
Q 2613 4750 3031 4423 
Q 3450 4097 3450 3541 
Q 3450 3153 3228 2886 
Q 3006 2619 2597 2516 
z
" transform="scale(0.015625)"/>
        <path id="DejaVuSans-32" d="M 1228 531 
L 3431 531 
L 3431 0 
L 469 0 
L 469 531 
Q 828 903 1448 1529 
Q 2069 2156 2228 2338 
Q 2531 2678 2651 2914 
Q 2772 3150 2772 3378 
Q 2772 3750 2511 3984 
Q 2250 4219 1831 4219 
Q 1534 4219 1204 4116 
Q 875 4013 500 3803 
L 500 4441 
Q 881 4594 1212 4672 
Q 1544 4750 1819 4750 
Q 2544 4750 2975 4387 
Q 3406 4025 3406 3419 
Q 3406 3131 3298 2873 
Q 3191 2616 2906 2266 
Q 2828 2175 2409 1742 
Q 1991 1309 1228 531 
z
" transform="scale(0.015625)"/>
       </defs>
       <use xlink:href="#DejaVuSans-46"/>
       <use xlink:href="#DejaVuSans-34" x="57.519531"/>
       <use xlink:href="#DejaVuSans-30" x="121.142578"/>
       <use xlink:href="#DejaVuSans-20" x="184.765625"/>
       <use xlink:href="#DejaVuSans-30" x="216.552734"/>
       <use xlink:href="#DejaVuSans-2e" x="280.175781"/>
       <use xlink:href="#DejaVuSans-31" x="311.962891"/>
       <use xlink:href="#DejaVuSans-33" x="375.585938"/>
       <use xlink:href="#DejaVuSans-2e" x="439.208984"/>
       <use xlink:href="#DejaVuSans-32" x="470.996094"/>
      </g>
      <!-- cat -->
      <g style="fill: #262626" transform="translate(93.560469 164.456595) scale(0.11 -0.11)">
       <use xlink:href="#DejaVuSans-63"/>
       <use xlink:href="#DejaVuSans-61" x="54.980469"/>
       <use xlink:href="#DejaVuSans-74" x="116.259766"/>
      </g>
     </g>
    </g>
    <g id="text_2">
     <!-- Application -->
     <g style="fill: #262626" transform="translate(68.58625 179.862376) scale(0.12 -0.12)">
      <defs>
       <path id="DejaVuSans-70" d="M 1159 525 
L 1159 -1331 
L 581 -1331 
L 581 3500 
L 1159 3500 
L 1159 2969 
Q 1341 3281 1617 3432 
Q 1894 3584 2278 3584 
Q 2916 3584 3314 3078 
Q 3713 2572 3713 1747 
Q 3713 922 3314 415 
Q 2916 -91 2278 -91 
Q 1894 -91 1617 61 
Q 1341 213 1159 525 
z
M 3116 1747 
Q 3116 2381 2855 2742 
Q 2594 3103 2138 3103 
Q 1681 3103 1420 2742 
Q 1159 2381 1159 1747 
Q 1159 1113 1420 752 
Q 1681 391 2138 391 
Q 2594 391 2855 752 
Q 3116 1113 3116 1747 
z
" transform="scale(0.015625)"/>
       <path id="DejaVuSans-6f" d="M 1959 3097 
Q 1497 3097 1228 2736 
Q 959 2375 959 1747 
Q 959 1119 1226 758 
Q 1494 397 1959 397 
Q 2419 397 2687 759 
Q 2956 1122 2956 1747 
Q 2956 2369 2687 2733 
Q 2419 3097 1959 3097 
z
M 1959 3584 
Q 2709 3584 3137 3096 
Q 3566 2609 3566 1747 
Q 3566 888 3137 398 
Q 2709 -91 1959 -91 
Q 1206 -91 779 398 
Q 353 888 353 1747 
Q 353 2609 779 3096 
Q 1206 3584 1959 3584 
z
" transform="scale(0.015625)"/>
       <path id="DejaVuSans-6e" d="M 3513 2113 
L 3513 0 
L 2938 0 
L 2938 2094 
Q 2938 2591 2744 2837 
Q 2550 3084 2163 3084 
Q 1697 3084 1428 2787 
Q 1159 2491 1159 1978 
L 1159 0 
L 581 0 
L 581 3500 
L 1159 3500 
L 1159 2956 
Q 1366 3272 1645 3428 
Q 1925 3584 2291 3584 
Q 2894 3584 3203 3211 
Q 3513 2838 3513 2113 
z
" transform="scale(0.015625)"/>
      </defs>
      <use xlink:href="#DejaVuSans-41"/>
      <use xlink:href="#DejaVuSans-70" x="68.408203"/>
      <use xlink:href="#DejaVuSans-70" x="131.884766"/>
      <use xlink:href="#DejaVuSans-6c" x="195.361328"/>
      <use xlink:href="#DejaVuSans-69" x="223.144531"/>
      <use xlink:href="#DejaVuSans-63" x="250.927734"/>
      <use xlink:href="#DejaVuSans-61" x="305.908203"/>
      <use xlink:href="#DejaVuSans-74" x="367.1875"/>
      <use xlink:href="#DejaVuSans-69" x="406.396484"/>
      <use xlink:href="#DejaVuSans-6f" x="434.179688"/>
      <use xlink:href="#DejaVuSans-6e" x="495.361328"/>
     </g>
    </g>
   </g>
   <g id="matplotlib.axis_2">
    <g id="ytick_1">
     <g id="line2d_1">
      <path d="M 46.31125 114.790272 
L 157.91125 114.790272 
" clip-path="url(#pd82a729958)" style="fill: none; stroke: #ffffff; stroke-linecap: round"/>
     </g>
     <g id="text_3">
      <!-- 8 -->
      <g style="fill: #262626" transform="translate(29.8125 118.969412) scale(0.11 -0.11)">
       <defs>
        <path id="DejaVuSans-38" d="M 2034 2216 
Q 1584 2216 1326 1975 
Q 1069 1734 1069 1313 
Q 1069 891 1326 650 
Q 1584 409 2034 409 
Q 2484 409 2743 651 
Q 3003 894 3003 1313 
Q 3003 1734 2745 1975 
Q 2488 2216 2034 2216 
z
M 1403 2484 
Q 997 2584 770 2862 
Q 544 3141 544 3541 
Q 544 4100 942 4425 
Q 1341 4750 2034 4750 
Q 2731 4750 3128 4425 
Q 3525 4100 3525 3541 
Q 3525 3141 3298 2862 
Q 3072 2584 2669 2484 
Q 3125 2378 3379 2068 
Q 3634 1759 3634 1313 
Q 3634 634 3220 271 
Q 2806 -91 2034 -91 
Q 1263 -91 848 271 
Q 434 634 434 1313 
Q 434 1759 690 2068 
Q 947 2378 1403 2484 
z
M 1172 3481 
Q 1172 3119 1398 2916 
Q 1625 2713 2034 2713 
Q 2441 2713 2670 2916 
Q 2900 3119 2900 3481 
Q 2900 3844 2670 4047 
Q 2441 4250 2034 4250 
Q 1625 4250 1398 4047 
Q 1172 3844 1172 3481 
z
" transform="scale(0.015625)"/>
       </defs>
       <use xlink:href="#DejaVuSans-38"/>
      </g>
     </g>
    </g>
    <g id="ytick_2">
     <g id="line2d_2">
      <path d="M 46.31125 88.937489 
L 157.91125 88.937489 
" clip-path="url(#pd82a729958)" style="fill: none; stroke: #ffffff; stroke-linecap: round"/>
     </g>
     <g id="text_4">
      <!-- 10 -->
      <g style="fill: #262626" transform="translate(22.81375 93.11663) scale(0.11 -0.11)">
       <use xlink:href="#DejaVuSans-31"/>
       <use xlink:href="#DejaVuSans-30" x="63.623047"/>
      </g>
     </g>
    </g>
    <g id="ytick_3">
     <g id="line2d_3">
      <path d="M 46.31125 63.084706 
L 157.91125 63.084706 
" clip-path="url(#pd82a729958)" style="fill: none; stroke: #ffffff; stroke-linecap: round"/>
     </g>
     <g id="text_5">
      <!-- 12 -->
      <g style="fill: #262626" transform="translate(22.81375 67.263847) scale(0.11 -0.11)">
       <use xlink:href="#DejaVuSans-31"/>
       <use xlink:href="#DejaVuSans-32" x="63.623047"/>
      </g>
     </g>
    </g>
    <g id="ytick_4">
     <g id="line2d_4">
      <path d="M 46.31125 37.231923 
L 157.91125 37.231923 
" clip-path="url(#pd82a729958)" style="fill: none; stroke: #ffffff; stroke-linecap: round"/>
     </g>
     <g id="text_6">
      <!-- 14 -->
      <g style="fill: #262626" transform="translate(22.81375 41.411064) scale(0.11 -0.11)">
       <use xlink:href="#DejaVuSans-31"/>
       <use xlink:href="#DejaVuSans-34" x="63.623047"/>
      </g>
     </g>
    </g>
    <g id="ytick_5">
     <g id="line2d_5">
      <path d="M 46.31125 11.379141 
L 157.91125 11.379141 
" clip-path="url(#pd82a729958)" style="fill: none; stroke: #ffffff; stroke-linecap: round"/>
     </g>
     <g id="text_7">
      <!-- 16 -->
      <g style="fill: #262626" transform="translate(22.81375 15.558281) scale(0.11 -0.11)">
       <defs>
        <path id="DejaVuSans-36" d="M 2113 2584 
Q 1688 2584 1439 2293 
Q 1191 2003 1191 1497 
Q 1191 994 1439 701 
Q 1688 409 2113 409 
Q 2538 409 2786 701 
Q 3034 994 3034 1497 
Q 3034 2003 2786 2293 
Q 2538 2584 2113 2584 
z
M 3366 4563 
L 3366 3988 
Q 3128 4100 2886 4159 
Q 2644 4219 2406 4219 
Q 1781 4219 1451 3797 
Q 1122 3375 1075 2522 
Q 1259 2794 1537 2939 
Q 1816 3084 2150 3084 
Q 2853 3084 3261 2657 
Q 3669 2231 3669 1497 
Q 3669 778 3244 343 
Q 2819 -91 2113 -91 
Q 1303 -91 875 529 
Q 447 1150 447 2328 
Q 447 3434 972 4092 
Q 1497 4750 2381 4750 
Q 2619 4750 2861 4703 
Q 3103 4656 3366 4563 
z
" transform="scale(0.015625)"/>
       </defs>
       <use xlink:href="#DejaVuSans-31"/>
       <use xlink:href="#DejaVuSans-36" x="63.623047"/>
      </g>
     </g>
    </g>
    <g id="text_8">
     <!-- Latency (ms) -->
     <g style="fill: #262626" transform="translate(16.318125 105.798751) rotate(-90) scale(0.12 -0.12)">
      <defs>
       <path id="DejaVuSans-4c" d="M 628 4666 
L 1259 4666 
L 1259 531 
L 3531 531 
L 3531 0 
L 628 0 
L 628 4666 
z
" transform="scale(0.015625)"/>
       <path id="DejaVuSans-65" d="M 3597 1894 
L 3597 1613 
L 953 1613 
Q 991 1019 1311 708 
Q 1631 397 2203 397 
Q 2534 397 2845 478 
Q 3156 559 3463 722 
L 3463 178 
Q 3153 47 2828 -22 
Q 2503 -91 2169 -91 
Q 1331 -91 842 396 
Q 353 884 353 1716 
Q 353 2575 817 3079 
Q 1281 3584 2069 3584 
Q 2775 3584 3186 3129 
Q 3597 2675 3597 1894 
z
M 3022 2063 
Q 3016 2534 2758 2815 
Q 2500 3097 2075 3097 
Q 1594 3097 1305 2825 
Q 1016 2553 972 2059 
L 3022 2063 
z
" transform="scale(0.015625)"/>
       <path id="DejaVuSans-28" d="M 1984 4856 
Q 1566 4138 1362 3434 
Q 1159 2731 1159 2009 
Q 1159 1288 1364 580 
Q 1569 -128 1984 -844 
L 1484 -844 
Q 1016 -109 783 600 
Q 550 1309 550 2009 
Q 550 2706 781 3412 
Q 1013 4119 1484 4856 
L 1984 4856 
z
" transform="scale(0.015625)"/>
       <path id="DejaVuSans-6d" d="M 3328 2828 
Q 3544 3216 3844 3400 
Q 4144 3584 4550 3584 
Q 5097 3584 5394 3201 
Q 5691 2819 5691 2113 
L 5691 0 
L 5113 0 
L 5113 2094 
Q 5113 2597 4934 2840 
Q 4756 3084 4391 3084 
Q 3944 3084 3684 2787 
Q 3425 2491 3425 1978 
L 3425 0 
L 2847 0 
L 2847 2094 
Q 2847 2600 2669 2842 
Q 2491 3084 2119 3084 
Q 1678 3084 1418 2786 
Q 1159 2488 1159 1978 
L 1159 0 
L 581 0 
L 581 3500 
L 1159 3500 
L 1159 2956 
Q 1356 3278 1631 3431 
Q 1906 3584 2284 3584 
Q 2666 3584 2933 3390 
Q 3200 3197 3328 2828 
z
" transform="scale(0.015625)"/>
       <path id="DejaVuSans-73" d="M 2834 3397 
L 2834 2853 
Q 2591 2978 2328 3040 
Q 2066 3103 1784 3103 
Q 1356 3103 1142 2972 
Q 928 2841 928 2578 
Q 928 2378 1081 2264 
Q 1234 2150 1697 2047 
L 1894 2003 
Q 2506 1872 2764 1633 
Q 3022 1394 3022 966 
Q 3022 478 2636 193 
Q 2250 -91 1575 -91 
Q 1294 -91 989 -36 
Q 684 19 347 128 
L 347 722 
Q 666 556 975 473 
Q 1284 391 1588 391 
Q 1994 391 2212 530 
Q 2431 669 2431 922 
Q 2431 1156 2273 1281 
Q 2116 1406 1581 1522 
L 1381 1569 
Q 847 1681 609 1914 
Q 372 2147 372 2553 
Q 372 3047 722 3315 
Q 1072 3584 1716 3584 
Q 2034 3584 2315 3537 
Q 2597 3491 2834 3397 
z
" transform="scale(0.015625)"/>
       <path id="DejaVuSans-29" d="M 513 4856 
L 1013 4856 
Q 1481 4119 1714 3412 
Q 1947 2706 1947 2009 
Q 1947 1309 1714 600 
Q 1481 -109 1013 -844 
L 513 -844 
Q 928 -128 1133 580 
Q 1338 1288 1338 2009 
Q 1338 2731 1133 3434 
Q 928 4138 513 4856 
z
" transform="scale(0.015625)"/>
      </defs>
      <use xlink:href="#DejaVuSans-4c"/>
      <use xlink:href="#DejaVuSans-61" x="55.712891"/>
      <use xlink:href="#DejaVuSans-74" x="116.992188"/>
      <use xlink:href="#DejaVuSans-65" x="156.201172"/>
      <use xlink:href="#DejaVuSans-6e" x="217.724609"/>
      <use xlink:href="#DejaVuSans-63" x="281.103516"/>
      <use xlink:href="#DejaVuSans-79" x="336.083984"/>
      <use xlink:href="#DejaVuSans-20" x="395.263672"/>
      <use xlink:href="#DejaVuSans-28" x="427.050781"/>
      <use xlink:href="#DejaVuSans-6d" x="466.064453"/>
      <use xlink:href="#DejaVuSans-73" x="563.476562"/>
      <use xlink:href="#DejaVuSans-29" x="615.576172"/>
     </g>
    </g>
   </g>
   <g id="patch_3">
    <path d="M 74.21125 88.753288 
L 130.01125 88.753288 
L 130.01125 49.153288 
L 74.21125 49.153288 
L 74.21125 88.753288 
z
" clip-path="url(#pd82a729958)" style="fill: #dbbdbc; stroke: #797979; stroke-linejoin: miter"/>
   </g>
   <g id="line2d_6">
    <path d="M 102.11125 88.753288 
L 102.11125 116.923126 
" clip-path="url(#pd82a729958)" style="fill: none; stroke: #797979"/>
   </g>
   <g id="line2d_7">
    <path d="M 102.11125 49.153288 
L 102.11125 16.123126 
" clip-path="url(#pd82a729958)" style="fill: none; stroke: #797979"/>
   </g>
   <g id="line2d_8">
    <path d="M 88.16125 116.923126 
L 116.06125 116.923126 
" clip-path="url(#pd82a729958)" style="fill: none; stroke: #797979; stroke-linecap: round"/>
   </g>
   <g id="line2d_9">
    <path d="M 88.16125 16.123126 
L 116.06125 16.123126 
" clip-path="url(#pd82a729958)" style="fill: none; stroke: #797979; stroke-linecap: round"/>
   </g>
   <g id="line2d_10"/>
   <g id="line2d_11">
    <path d="M 74.21125 71.745388 
L 130.01125 71.745388 
" clip-path="url(#pd82a729958)" style="fill: none; stroke: #797979"/>
   </g>
   <g id="patch_4">
    <path d="M 46.31125 121.963126 
L 46.31125 11.083126 
" style="fill: none; stroke: #ffffff; stroke-width: 1.25; stroke-linejoin: miter; stroke-linecap: square"/>
   </g>
   <g id="patch_5">
    <path d="M 157.91125 121.963126 
L 157.91125 11.083126 
" style="fill: none; stroke: #ffffff; stroke-width: 1.25; stroke-linejoin: miter; stroke-linecap: square"/>
   </g>
   <g id="patch_6">
    <path d="M 46.31125 121.963126 
L 157.91125 121.963126 
" style="fill: none; stroke: #ffffff; stroke-width: 1.25; stroke-linejoin: miter; stroke-linecap: square"/>
   </g>
   <g id="patch_7">
    <path d="M 46.31125 11.083126 
L 157.91125 11.083126 
" style="fill: none; stroke: #ffffff; stroke-width: 1.25; stroke-linejoin: miter; stroke-linecap: square"/>
   </g>
   <g id="PathCollection_1">
    <defs>
     <path id="mfb8284bdb6" d="M 0 1 
C 0.265203 1 0.51958 0.894634 0.707107 0.707107 
C 0.894634 0.51958 1 0.265203 1 0 
C 1 -0.265203 0.894634 -0.51958 0.707107 -0.707107 
C 0.51958 -0.894634 0.265203 -1 0 -1 
C -0.265203 -1 -0.51958 -0.894634 -0.707107 -0.707107 
C -0.894634 -0.51958 -1 -0.265203 -1 0 
C -1 0.265203 -0.894634 0.51958 -0.707107 0.707107 
C -0.51958 0.894634 -0.265203 1 0 1 
z
"/>
    </defs>
    <g clip-path="url(#pd82a729958)">
     <use xlink:href="#mfb8284bdb6" x="112.428914" y="71.241259" style="fill-opacity: 0.5"/>
     <use xlink:href="#mfb8284bdb6" x="107.042693" y="53.467471" style="fill-opacity: 0.5"/>
     <use xlink:href="#mfb8284bdb6" x="108.076947" y="75.959392" style="fill-opacity: 0.5"/>
     <use xlink:href="#mfb8284bdb6" x="103.802969" y="51.980936" style="fill-opacity: 0.5"/>
     <use xlink:href="#mfb8284bdb6" x="103.303679" y="56.996376" style="fill-opacity: 0.5"/>
     <use xlink:href="#mfb8284bdb6" x="94.643102" y="31.712354" style="fill-opacity: 0.5"/>
     <use xlink:href="#mfb8284bdb6" x="107.911902" y="103.557238" style="fill-opacity: 0.5"/>
     <use xlink:href="#mfb8284bdb6" x="101.515237" y="98.089374" style="fill-opacity: 0.5"/>
     <use xlink:href="#mfb8284bdb6" x="104.04416" y="52.420433" style="fill-opacity: 0.5"/>
     <use xlink:href="#mfb8284bdb6" x="102.575874" y="51.980936" style="fill-opacity: 0.5"/>
     <use xlink:href="#mfb8284bdb6" x="109.703627" y="84.607148" style="fill-opacity: 0.5"/>
     <use xlink:href="#mfb8284bdb6" x="93.721281" y="27.39494" style="fill-opacity: 0.5"/>
     <use xlink:href="#mfb8284bdb6" x="104.628728" y="88.148979" style="fill-opacity: 0.5"/>
     <use xlink:href="#mfb8284bdb6" x="105.811181" y="99.239823" style="fill-opacity: 0.5"/>
     <use xlink:href="#mfb8284bdb6" x="91.023676" y="41.316663" style="fill-opacity: 0.5"/>
     <use xlink:href="#mfb8284bdb6" x="94.610648" y="75.700864" style="fill-opacity: 0.5"/>
     <use xlink:href="#mfb8284bdb6" x="98.217599" y="69.961546" style="fill-opacity: 0.5"/>
     <use xlink:href="#mfb8284bdb6" x="92.013996" y="59.995299" style="fill-opacity: 0.5"/>
     <use xlink:href="#mfb8284bdb6" x="93.358957" y="65.592426" style="fill-opacity: 0.5"/>
     <use xlink:href="#mfb8284bdb6" x="92.226622" y="46.099428" style="fill-opacity: 0.5"/>
     <use xlink:href="#mfb8284bdb6" x="95.208696" y="42.86783" style="fill-opacity: 0.5"/>
     <use xlink:href="#mfb8284bdb6" x="91.647397" y="103.596017" style="fill-opacity: 0.5"/>
     <use xlink:href="#mfb8284bdb6" x="92.494354" y="34.840541" style="fill-opacity: 0.5"/>
     <use xlink:href="#mfb8284bdb6" x="106.077109" y="88.1102" style="fill-opacity: 0.5"/>
     <use xlink:href="#mfb8284bdb6" x="104.567308" y="78.324922" style="fill-opacity: 0.5"/>
     <use xlink:href="#mfb8284bdb6" x="104.654145" y="62.671062" style="fill-opacity: 0.5"/>
     <use xlink:href="#mfb8284bdb6" x="106.106147" y="77.071062" style="fill-opacity: 0.5"/>
     <use xlink:href="#mfb8284bdb6" x="104.890061" y="78.363701" style="fill-opacity: 0.5"/>
     <use xlink:href="#mfb8284bdb6" x="109.028018" y="43.061726" style="fill-opacity: 0.5"/>
     <use xlink:href="#mfb8284bdb6" x="102.471944" y="52.627256" style="fill-opacity: 0.5"/>
     <use xlink:href="#mfb8284bdb6" x="101.080292" y="92.918817" style="fill-opacity: 0.5"/>
     <use xlink:href="#mfb8284bdb6" x="105.969432" y="90.540361" style="fill-opacity: 0.5"/>
     <use xlink:href="#mfb8284bdb6" x="96.929935" y="112.321331" style="fill-opacity: 0.5"/>
     <use xlink:href="#mfb8284bdb6" x="94.027496" y="76.192067" style="fill-opacity: 0.5"/>
     <use xlink:href="#mfb8284bdb6" x="91.870978" y="80.418997" style="fill-opacity: 0.5"/>
     <use xlink:href="#mfb8284bdb6" x="95.810494" y="85.188835" style="fill-opacity: 0.5"/>
     <use xlink:href="#mfb8284bdb6" x="101.296716" y="103.634796" style="fill-opacity: 0.5"/>
     <use xlink:href="#mfb8284bdb6" x="101.613098" y="62.74862" style="fill-opacity: 0.5"/>
     <use xlink:href="#mfb8284bdb6" x="96.825225" y="70.711277" style="fill-opacity: 0.5"/>
     <use xlink:href="#mfb8284bdb6" x="95.105352" y="116.923126" style="fill-opacity: 0.5"/>
     <use xlink:href="#mfb8284bdb6" x="104.834945" y="109.99458" style="fill-opacity: 0.5"/>
     <use xlink:href="#mfb8284bdb6" x="111.387922" y="31.76406" style="fill-opacity: 0.5"/>
     <use xlink:href="#mfb8284bdb6" x="110.836627" y="26.74862" style="fill-opacity: 0.5"/>
     <use xlink:href="#mfb8284bdb6" x="109.897735" y="113.135694" style="fill-opacity: 0.5"/>
     <use xlink:href="#mfb8284bdb6" x="113.157373" y="86.429769" style="fill-opacity: 0.5"/>
     <use xlink:href="#mfb8284bdb6" x="97.431404" y="79.824383" style="fill-opacity: 0.5"/>
     <use xlink:href="#mfb8284bdb6" x="98.775651" y="96.525281" style="fill-opacity: 0.5"/>
     <use xlink:href="#mfb8284bdb6" x="92.940762" y="49.899787" style="fill-opacity: 0.5"/>
     <use xlink:href="#mfb8284bdb6" x="101.88529" y="49.162983" style="fill-opacity: 0.5"/>
     <use xlink:href="#mfb8284bdb6" x="107.874885" y="101.592426" style="fill-opacity: 0.5"/>
     <use xlink:href="#mfb8284bdb6" x="103.775788" y="75.209661" style="fill-opacity: 0.5"/>
     <use xlink:href="#mfb8284bdb6" x="99.39153" y="102.355083" style="fill-opacity: 0.5"/>
     <use xlink:href="#mfb8284bdb6" x="95.615481" y="56.19494" style="fill-opacity: 0.5"/>
     <use xlink:href="#mfb8284bdb6" x="91.363701" y="104.591349" style="fill-opacity: 0.5"/>
     <use xlink:href="#mfb8284bdb6" x="95.082016" y="19.290092" style="fill-opacity: 0.5"/>
     <use xlink:href="#mfb8284bdb6" x="107.224489" y="93.655622" style="fill-opacity: 0.5"/>
     <use xlink:href="#mfb8284bdb6" x="92.766429" y="77.588117" style="fill-opacity: 0.5"/>
     <use xlink:href="#mfb8284bdb6" x="96.708208" y="41.575191" style="fill-opacity: 0.5"/>
     <use xlink:href="#mfb8284bdb6" x="93.054384" y="72.249518" style="fill-opacity: 0.5"/>
     <use xlink:href="#mfb8284bdb6" x="104.40414" y="80.561187" style="fill-opacity: 0.5"/>
     <use xlink:href="#mfb8284bdb6" x="99.211657" y="50.481475" style="fill-opacity: 0.5"/>
     <use xlink:href="#mfb8284bdb6" x="101.623596" y="79.061726" style="fill-opacity: 0.5"/>
     <use xlink:href="#mfb8284bdb6" x="112.04393" y="70.724203" style="fill-opacity: 0.5"/>
     <use xlink:href="#mfb8284bdb6" x="93.252256" y="28.131744" style="fill-opacity: 0.5"/>
     <use xlink:href="#mfb8284bdb6" x="107.939203" y="22.418279" style="fill-opacity: 0.5"/>
     <use xlink:href="#mfb8284bdb6" x="100.465206" y="93.216124" style="fill-opacity: 0.5"/>
     <use xlink:href="#mfb8284bdb6" x="110.681325" y="101.191708" style="fill-opacity: 0.5"/>
     <use xlink:href="#mfb8284bdb6" x="112.940466" y="80.625819" style="fill-opacity: 0.5"/>
     <use xlink:href="#mfb8284bdb6" x="96.41854" y="73.322408" style="fill-opacity: 0.5"/>
     <use xlink:href="#mfb8284bdb6" x="96.889016" y="96.318458" style="fill-opacity: 0.5"/>
     <use xlink:href="#mfb8284bdb6" x="103.571687" y="35.99099" style="fill-opacity: 0.5"/>
     <use xlink:href="#mfb8284bdb6" x="90.987533" y="45.19458" style="fill-opacity: 0.5"/>
     <use xlink:href="#mfb8284bdb6" x="106.482073" y="89.945747" style="fill-opacity: 0.5"/>
     <use xlink:href="#mfb8284bdb6" x="108.298464" y="107.499787" style="fill-opacity: 0.5"/>
     <use xlink:href="#mfb8284bdb6" x="105.473121" y="32.164778" style="fill-opacity: 0.5"/>
     <use xlink:href="#mfb8284bdb6" x="110.287638" y="101.217561" style="fill-opacity: 0.5"/>
     <use xlink:href="#mfb8284bdb6" x="107.148352" y="32.255263" style="fill-opacity: 0.5"/>
     <use xlink:href="#mfb8284bdb6" x="92.528023" y="74.214329" style="fill-opacity: 0.5"/>
     <use xlink:href="#mfb8284bdb6" x="93.123443" y="49.757597" style="fill-opacity: 0.5"/>
     <use xlink:href="#mfb8284bdb6" x="110.139277" y="16.123126" style="fill-opacity: 0.5"/>
     <use xlink:href="#mfb8284bdb6" x="95.825768" y="109.38704" style="fill-opacity: 0.5"/>
     <use xlink:href="#mfb8284bdb6" x="92.193798" y="66.600685" style="fill-opacity: 0.5"/>
     <use xlink:href="#mfb8284bdb6" x="95.700457" y="84.219356" style="fill-opacity: 0.5"/>
     <use xlink:href="#mfb8284bdb6" x="106.678336" y="77.058135" style="fill-opacity: 0.5"/>
     <use xlink:href="#mfb8284bdb6" x="94.096921" y="41.161546" style="fill-opacity: 0.5"/>
     <use xlink:href="#mfb8284bdb6" x="91.399617" y="62.42546" style="fill-opacity: 0.5"/>
     <use xlink:href="#mfb8284bdb6" x="109.875193" y="79.759751" style="fill-opacity: 0.5"/>
     <use xlink:href="#mfb8284bdb6" x="96.744458" y="96.2409" style="fill-opacity: 0.5"/>
     <use xlink:href="#mfb8284bdb6" x="111.959973" y="64.46783" style="fill-opacity: 0.5"/>
     <use xlink:href="#mfb8284bdb6" x="105.47887" y="72.45634" style="fill-opacity: 0.5"/>
     <use xlink:href="#mfb8284bdb6" x="100.169079" y="91.199607" style="fill-opacity: 0.5"/>
     <use xlink:href="#mfb8284bdb6" x="95.543483" y="23.064598" style="fill-opacity: 0.5"/>
     <use xlink:href="#mfb8284bdb6" x="104.808959" y="30.342157" style="fill-opacity: 0.5"/>
     <use xlink:href="#mfb8284bdb6" x="98.056591" y="81.19458" style="fill-opacity: 0.5"/>
     <use xlink:href="#mfb8284bdb6" x="101.638529" y="99.084706" style="fill-opacity: 0.5"/>
     <use xlink:href="#mfb8284bdb6" x="101.572487" y="67.841618" style="fill-opacity: 0.5"/>
     <use xlink:href="#mfb8284bdb6" x="111.074409" y="46.461367" style="fill-opacity: 0.5"/>
     <use xlink:href="#mfb8284bdb6" x="95.532049" y="82.073575" style="fill-opacity: 0.5"/>
     <use xlink:href="#mfb8284bdb6" x="92.412665" y="62.761546" style="fill-opacity: 0.5"/>
     <use xlink:href="#mfb8284bdb6" x="104.352494" y="95.491169" style="fill-opacity: 0.5"/>
     <use xlink:href="#mfb8284bdb6" x="104.473175" y="22.689733" style="fill-opacity: 0.5"/>
     <use xlink:href="#mfb8284bdb6" x="110.025138" y="93.810738" style="fill-opacity: 0.5"/>
     <use xlink:href="#mfb8284bdb6" x="94.487838" y="61.843773" style="fill-opacity: 0.5"/>
     <use xlink:href="#mfb8284bdb6" x="96.95436" y="68.113072" style="fill-opacity: 0.5"/>
     <use xlink:href="#mfb8284bdb6" x="109.887018" y="88.355801" style="fill-opacity: 0.5"/>
     <use xlink:href="#mfb8284bdb6" x="95.277467" y="41.975909" style="fill-opacity: 0.5"/>
     <use xlink:href="#mfb8284bdb6" x="99.374363" y="100.700505" style="fill-opacity: 0.5"/>
     <use xlink:href="#mfb8284bdb6" x="109.269447" y="58.314868" style="fill-opacity: 0.5"/>
     <use xlink:href="#mfb8284bdb6" x="91.969366" y="75.726717" style="fill-opacity: 0.5"/>
     <use xlink:href="#mfb8284bdb6" x="111.734123" y="56.453467" style="fill-opacity: 0.5"/>
     <use xlink:href="#mfb8284bdb6" x="104.002659" y="39.506968" style="fill-opacity: 0.5"/>
     <use xlink:href="#mfb8284bdb6" x="92.719746" y="68.022588" style="fill-opacity: 0.5"/>
     <use xlink:href="#mfb8284bdb6" x="107.975619" y="25.223306" style="fill-opacity: 0.5"/>
     <use xlink:href="#mfb8284bdb6" x="101.154682" y="18.992785" style="fill-opacity: 0.5"/>
     <use xlink:href="#mfb8284bdb6" x="101.645014" y="95.762624" style="fill-opacity: 0.5"/>
     <use xlink:href="#mfb8284bdb6" x="102.591906" y="32.022588" style="fill-opacity: 0.5"/>
     <use xlink:href="#mfb8284bdb6" x="112.85783" y="75.10625" style="fill-opacity: 0.5"/>
     <use xlink:href="#mfb8284bdb6" x="92.383474" y="49.124203" style="fill-opacity: 0.5"/>
     <use xlink:href="#mfb8284bdb6" x="105.126802" y="52.071421" style="fill-opacity: 0.5"/>
     <use xlink:href="#mfb8284bdb6" x="100.952892" y="38.602121" style="fill-opacity: 0.5"/>
    </g>
   </g>
  </g>
 </g>
 <defs>
  <clipPath id="pd82a729958">
   <rect x="46.31125" y="11.083126" width="111.6" height="110.88"/>
  </clipPath>
 </defs>
</svg>
